<svg version="1.1" id="Layer_1" xmlns="http://www.w3.org/2000/svg" xmlns:xlink="http://www.w3.org/1999/xlink" x="0px" y="0px" viewBox="0 0 200 200" style="enable-background:new 0 0 200 200;" xml:space="preserve">
<defs>
<linearGradient id="endGrad" x1="0%" y1="0%" x2="100%" y2="100%">
<stop offset="0%" style="stop-color:#3b82f6;stop-opacity:1"/>
<stop offset="50%" style="stop-color:#8b5cf6;stop-opacity:1"/>
<stop offset="100%" style="stop-color:#3b82f6;stop-opacity:1"/>
</linearGradient>
</defs>
<rect width="200" height="200" fill="#1e293b"/>
<circle cx="100" cy="160" r="15" fill="#334155" stroke="#475569" stroke-width="2"/>
<circle cx="100" cy="160" r="7" fill="#1e293b" stroke="#475569" stroke-width="1"/>
<rect x="95" y="120" width="10" height="40" rx="3" fill="url(#endGrad)"/>
<circle cx="100" cy="120" r="4" fill="#60a5fa"/>
<rect x="92" y="85" width="16" height="35" rx="3" fill="url(#endGrad)" transform="rotate(-20 100 120)"/>
<circle cx="100" cy="85" r="4" fill="#93c5fd"/>
<rect x="94" y="55" width="12" height="30" rx="2" fill="#60a5fa" transform="rotate(15 100 85)"/>
<circle cx="100" cy="55" r="3" fill="#3b82f6"/>
<rect x="96" y="35" width="8" height="20" rx="2" fill="#93c5fd"/>
<circle cx="100" cy="35" r="2" fill="#60a5fa"/>
<rect x="96" y="22" width="6" height="13" rx="1" fill="#22c55e"/>
<rect x="102" y="22" width="6" height="13" rx="1" fill="#22c55e"/>
<circle cx="100" cy="22" r="6" fill="none" stroke="#22c55e" stroke-width="2"/>
<circle cx="40" cy="40" r="4" fill="#22c55e" opacity="0.5"/>
<circle cx="160" cy="40" r="4" fill="#22c55e" opacity="0.5"/>
<circle cx="30" cy="100" r="3" fill="#3b82f6" opacity="0.4"/>
<circle cx="170" cy="100" r="3" fill="#3b82f6" opacity="0.4"/>
<circle cx="50" cy="160" r="2" fill="#8b5cf6" opacity="0.3"/>
<circle cx="150" cy="160" r="2" fill="#8b5cf6" opacity="0.3"/>
<text x="100" y="190" font-family="sans-serif" font-size="12" fill="#94a3b8" text-anchor="middle">探索完成</text>
</svg>