<svg version="1.1" xmlns="http://www.w3.org/2000/svg" viewBox="0 0 512 512">
<defs>
<linearGradient id="s1ArmGrad" x1="0%" y1="0%" x2="100%" y2="100%">
<stop offset="0%" style="stop-color:#3b82f6"/>
<stop offset="100%" style="stop-color:#60a5fa"/>
</linearGradient>
</defs>
<style>
@keyframes pulse { 0%,100% {opacity:0.4;} 50% {opacity:1;} }
@keyframes float { 0%,100% {transform:translateY(0);} 50% {transform:translateY(-5px);} }
</style>
<rect width="512" height="512" fill="#1e293b"/>
<circle cx="256" cy="420" r="40" fill="#334155" stroke="#475569" stroke-width="2"/>
<circle cx="256" cy="420" r="22" fill="#1e293b" stroke="#475569" stroke-width="1"/>
<rect x="250" y="320" width="12" height="100" rx="4" fill="url(#s1ArmGrad)"/>
<circle cx="256" cy="320" r="5" fill="#60a5fa"/>
<rect x="252" y="240" width="8" height="80" rx="3" fill="url(#s1ArmGrad)"/>
<circle cx="256" cy="240" r="4" fill="#93c5fd"/>
<rect x="253" y="180" width="6" height="60" rx="2" fill="#60a5fa"/>
<circle cx="256" cy="180" r="3" fill="#3b82f6"/>
<rect x="254" y="140" width="4" height="40" rx="2" fill="#93c5fd"/>
<circle cx="256" cy="140" r="2" fill="#60a5fa"/>
<rect x="254" y="120" width="6" height="20" rx="1" fill="#22c55e"/>
<circle cx="256" cy="120" r="4" fill="none" stroke="#22c55e" stroke-width="2"/>
<circle cx="256" cy="420" r="50" stroke="rgba(59,130,246,0.2)" stroke-width="2" stroke-dasharray="5,5">
<animateTransform attributeName="transform" type="rotate" from="0 256 420" to="360 256 420" dur="10s" repeatCount="indefinite"/>
</circle>
<circle cx="256" cy="320" r="30" stroke="rgba(59,130,246,0.3)" stroke-width="2" stroke-dasharray="4,4">
<animate attributeName="opacity" values="0.3;0.6;0.3" dur="2s" repeatCount="indefinite"/>
</circle>
<circle cx="150" cy="150" r="3" fill="#22c55e">
<animate attributeName="opacity" values="0.3;1;0.3" dur="1.5s" repeatCount="indefinite"/>
</circle>
<circle cx="362" cy="150" r="3" fill="#22c55e">
<animate attributeName="opacity" values="0.3;1;0.3" dur="1.5s" repeatCount="indefinite"/>
</circle>
<text x="256" y="485" font-family="sans-serif" font-size="18" fill="#94a3b8" text-anchor="middle">步骤1：机械臂待命</text>
</svg>