<svg version="1.1" xmlns="http://www.w3.org/2000/svg" viewBox="0 0 512 512">
<defs>
<linearGradient id="s5ArmGrad" x1="0%" y1="0%" x2="100%" y2="100%">
<stop offset="0%" style="stop-color:#ec4899"/>
<stop offset="100%" style="stop-color:#f472b6"/>
</linearGradient>
</defs>
<rect width="512" height="512" fill="#1e293b"/>
<circle cx="256" cy="420" r="40" fill="#334155" stroke="#ec4899" stroke-width="2"/>
<circle cx="256" cy="420" r="22" fill="#1e293b" stroke="#ec4899" stroke-width="1"/>
<rect x="250" y="320" width="12" height="100" rx="4" fill="#475569"/>
<circle cx="256" cy="320" r="5" fill="#64748b"/>
<rect x="240" y="200" width="10" height="120" rx="3" fill="#475569" transform="rotate(-50 256 320)"/>
<circle cx="210" cy="245" r="5" fill="#64748b"/>
<rect x="208" y="145" width="8" height="100" rx="3" fill="#475569" transform="rotate(25 210 245)"/>
<circle cx="235" cy="165" r="5" fill="#ec4899"/>
<rect x="233" y="130" width="6" height="35" rx="2" fill="url(#s5ArmGrad)"/>
<circle cx="236" cy="130" r="3" fill="#f472b6"/>
<rect x="234" y="100" width="4" height="30" rx="2" fill="url(#s5ArmGrad)"/>
<circle cx="236" cy="100" r="2" fill="#ec4899"/>
<g>
<rect x="228" y="80" width="8" height="20" rx="2" fill="#ec4899"/>
<rect x="238" y="80" width="8" height="20" rx="2" fill="#ec4899"/>
</g>
<rect x="225" y="65" width="22" height="15" rx="3" fill="#334155" stroke="#ec4899" stroke-width="2"/>
<circle cx="236" cy="72" r="5" fill="#f472b6">
<animate attributeName="opacity" values="0.5;1;0.5" dur="0.8s" repeatCount="indefinite"/>
</circle>
<circle cx="320" cy="180" r="25" fill="#334155" stroke="#64748b" stroke-width="2"/>
<circle cx="320" cy="180" r="12" fill="#1e293b"/>
<circle cx="320" cy="180" r="6" fill="#64748b">
<animate attributeName="opacity" values="0.3;1;0.3" dur="1s" repeatCount="indefinite"/>
</circle>
<path d="M236 100 L270 130 L310 165" stroke="rgba(236,72,153,0.5)" stroke-width="4" stroke-dasharray="8,4" fill="none">
<animate attributeName="stroke-dashoffset" from="0" to="24" dur="2s" repeatCount="indefinite"/>
</path>
<text x="340" y="185" font-family="sans-serif" font-size="12" fill="#ec4899">抓取目标</text>
<text x="256" y="485" font-family="sans-serif" font-size="18" fill="#94a3b8" text-anchor="middle">步骤5：抓取完成</text>
</svg>