<svg version="1.1" xmlns="http://www.w3.org/2000/svg" viewBox="0 0 512 512">
<defs>
<linearGradient id="s4ArmGrad" x1="0%" y1="0%" x2="100%" y2="100%">
<stop offset="0%" style="stop-color:#22c55e"/>
<stop offset="100%" style="stop-color:#4ade80"/>
</linearGradient>
</defs>
<rect width="512" height="512" fill="#1e293b"/>
<circle cx="256" cy="420" r="40" fill="#334155" stroke="#22c55e" stroke-width="2"/>
<circle cx="256" cy="420" r="22" fill="#1e293b" stroke="#22c55e" stroke-width="1"/>
<rect x="250" y="320" width="12" height="100" rx="4" fill="#475569"/>
<circle cx="256" cy="320" r="5" fill="#64748b"/>
<rect x="245" y="220" width="10" height="100" rx="3" fill="#475569" transform="rotate(-45 256 320)"/>
<circle cx="218" cy="250" r="5" fill="#64748b"/>
<rect x="215" y="160" width="8" height="90" rx="3" fill="#475569" transform="rotate(30 218 250)"/>
<circle cx="240" cy="175" r="5" fill="#22c55e" stroke="#4ade80" stroke-width="2"/>
<g transform="translate(240, 175)">
<animateTransform attributeName="transform" type="rotate" from="-15" to="15" dur="1.5s" repeatCount="indefinite"/>
<rect x="-3" y="-30" width="6" height="30" rx="2" fill="url(#s4ArmGrad)"/>
<circle cx="0" cy="-30" r="3" fill="#4ade80"/>
<g transform="translate(0, -30)">
<animateTransform attributeName="transform" type="rotate" from="10" to="-10" dur="1.2s" repeatCount="indefinite"/>
<rect x="-2" y="-20" width="4" height="20" rx="2" fill="url(#s4ArmGrad)"/>
<circle cx="0" cy="-20" r="2" fill="#22c55e"/>
<g transform="translate(0, -20)">
<animateTransform attributeName="transform" type="rotate" from="-20" to="20" dur="1s" repeatCount="indefinite"/>
<rect x="-3" y="-15" width="6" height="15" rx="1" fill="#22c55e"/>
<circle cx="0" cy="-15" r="4" fill="none" stroke="#22c55e" stroke-width="2"/>
</g>
</g>
</g>
<circle cx="240" cy="175" r="25" stroke="rgba(34,197,94,0.3)" stroke-width="2" stroke-dasharray="4,4">
<animateTransform attributeName="transform" type="rotate" from="0 240 175" to="360 240 175" dur="3s" repeatCount="indefinite"/>
</circle>
<circle cx="240" cy="145" r="20" stroke="rgba(74,222,128,0.2)" stroke-width="2" stroke-dasharray="3,3">
<animate attributeName="opacity" values="0.2;0.5;0.2" dur="1s" repeatCount="indefinite"/>
</circle>
<text x="200" y="130" font-family="sans-serif" font-size="12" fill="#22c55e">腕部调整</text>
<text x="256" y="485" font-family="sans-serif" font-size="18" fill="#94a3b8" text-anchor="middle">步骤4：姿态调整</text>
</svg>