<svg version="1.1" xmlns="http://www.w3.org/2000/svg" viewBox="0 0 512 512">
<defs>
<linearGradient id="bgGrad" x1="0%" y1="0%" x2="100%" y2="100%">
<stop offset="0%" style="stop-color:#0f172a"/>
<stop offset="50%" style="stop-color:#1e293b"/>
<stop offset="100%" style="stop-color:#0f172a"/>
</linearGradient>
<linearGradient id="armGrad" x1="0%" y1="0%" x2="100%" y2="100%">
<stop offset="0%" style="stop-color:#3b82f6"/>
<stop offset="30%" style="stop-color:#60a5fa"/>
<stop offset="70%" style="stop-color:#8b5cf6"/>
<stop offset="100%" style="stop-color:#3b82f6"/>
</linearGradient>
<filter id="glow">
<feGaussianBlur stdDeviation="3" result="coloredBlur"/>
<feMerge>
<feMergeNode in="coloredBlur"/>
<feMergeNode in="SourceGraphic"/>
</feMerge>
</filter>
</defs>
<rect width="512" height="512" fill="url(#bgGrad)"/>
<circle cx="80" cy="100" r="60" fill="rgba(59,130,246,0.05)"/>
<circle cx="432" cy="400" r="80" fill="rgba(139,92,246,0.05)"/>
<circle cx="256" cy="256" r="120" fill="rgba(59,130,246,0.03)"/>
<line x1="50" y1="400" x2="462" y2="400" stroke="rgba(59,130,246,0.2)" stroke-width="2"/>
<line x1="50" y1="420" x2="462" y2="420" stroke="rgba(59,130,246,0.1)" stroke-width="1"/>
<circle cx="256" cy="420" r="35" fill="#334155" stroke="#475569" stroke-width="2"/>
<circle cx="256" cy="420" r="20" fill="#1e293b" stroke="#475569" stroke-width="1"/>
<rect x="248" y="320" width="16" height="100" rx="4" fill="url(#armGrad)"/>
<circle cx="256" cy="320" r="6" fill="#60a5fa"/>
<g transform="translate(256, 320)">
<rect x="-6" y="-80" width="12" height="80" rx="3" fill="url(#armGrad)" transform="rotate(-30)"/>
<circle cx="0" cy="-80" r="5" fill="#93c5fd"/>
</g>
<g transform="translate(236, 255)">
<rect x="-4" y="-60" width="8" height="60" rx="2" fill="#60a5fa" transform="rotate(20)"/>
<circle cx="0" cy="-60" r="4" fill="#3b82f6"/>
</g>
<g transform="translate(242, 205)">
<rect x="-3" y="-40" width="6" height="40" rx="2" fill="#93c5fd" transform="rotate(-15)"/>
<circle cx="0" cy="-40" r="3" fill="#60a5fa"/>
</g>
<g transform="translate(238, 175)">
<rect x="-4" y="-25" width="8" height="25" rx="2" fill="#22c55e"/>
<rect x="4" y="-25" width="8" height="25" rx="2" fill="#22c55e"/>
<circle cx="0" cy="-25" r="5" fill="none" stroke="#22c55e" stroke-width="2"/>
</g>
<circle cx="100" cy="150" r="3" fill="#22c55e" opacity="0.6"/>
<circle cx="412" cy="150" r="3" fill="#22c55e" opacity="0.6"/>
<circle cx="60" cy="300" r="2" fill="#3b82f6" opacity="0.5"/>
<circle cx="452" cy="300" r="2" fill="#3b82f6" opacity="0.5"/>
<circle cx="150" cy="400" r="2" fill="#8b5cf6" opacity="0.4"/>
<circle cx="362" cy="400" r="2" fill="#8b5cf6" opacity="0.4"/>
<text x="256" y="120" font-family="sans-serif" font-size="48" font-weight="bold" fill="#fff" text-anchor="middle" letter-spacing="4">六轴机械臂</text>
<text x="256" y="165" font-family="sans-serif" font-size="20" fill="#94a3b8" text-anchor="middle">探索工业机器人的奥秘</text>
<g transform="translate(256, 475)">
<rect x="-120" y="0" width="240" height="2" rx="1" fill="rgba(59,130,246,0.3)"/>
<rect x="-60" y="0" width="120" height="2" rx="1" fill="#3b82f6"/>
</g>
</svg>