<svg xmlns="http://www.w3.org/2000/svg" viewBox="0 0 180 180">
  <defs>
    <linearGradient id="a1Grad" x1="0%" y1="0%" x2="100%" y2="100%">
      <stop offset="0%" style="stop-color:#3b82f6;stop-opacity:1" />
      <stop offset="100%" style="stop-color:#1d4ed8;stop-opacity:1" />
    </linearGradient>
  </defs>
  <rect width="180" height="180" fill="#1e293b"/>
  
  <rect x="20" y="50" width="50" height="60" rx="6" fill="rgba(59,130,246,0.1)" stroke="#3b82f6" stroke-width="2"/>
  <text x="45" y="70" font-family="sans-serif" font-size="12" fill="#3b82f6" text-anchor="middle">合肥</text>
  <text x="45" y="85" font-family="sans-serif" font-size="8" fill="#94a3b8" text-anchor="middle">科大 / 合工大</text>
  <rect x="30" y="95" width="30" height="15" rx="3" fill="rgba(59,130,246,0.2)"/>
  <text x="45" y="106" font-family="sans-serif" font-size="7" fill="#60a5fa" text-anchor="middle">产学研一体化</text>
  
  <rect x="70" y="80" width="40" height="50" rx="6" fill="rgba(245,158,11,0.1)" stroke="#f59e0b" stroke-width="2"/>
  <text x="90" y="98" font-family="sans-serif" font-size="11" fill="#f59e0b" text-anchor="middle">芜湖</text>
  <text x="90" y="113" font-family="sans-serif" font-size="8" fill="#94a3b8" text-anchor="middle">奇瑞汽车</text>
  <rect x="77" y="120" width="26" height="10" rx="2" fill="rgba(245,158,11,0.2)"/>
  <text x="90" y="127" font-family="sans-serif" font-size="6" fill="#fcd34d" text-anchor="middle">汽车制造</text>
  
  <rect x="115" y="50" width="45" height="45" rx="6" fill="rgba(34,197,94,0.1)" stroke="#22c55e" stroke-width="2"/>
  <text x="137" y="68" font-family="sans-serif" font-size="11" fill="#22c55e" text-anchor="middle">马鞍山</text>
  <text x="137" y="83" font-family="sans-serif" font-size="8" fill="#94a3b8" text-anchor="middle">钢铁产业</text>
  <rect x="123" y="92" width="28" height="10" rx="2" fill="rgba(34,197,94,0.2)"/>
  <text x="137" y="99" font-family="sans-serif" font-size="6" fill="#4ade80" text-anchor="middle">焊接机器人</text>
  
  <line x1="45" y1="110" x2="90" y2="80" stroke="rgba(255,255,255,0.1)" stroke-width="2" stroke-dasharray="4 2"/>
  <line x1="90" y1="130" x2="137" y2="95" stroke="rgba(255,255,255,0.1)" stroke-width="2" stroke-dasharray="4 2"/>
  <line x1="137" y1="95" x2="45" y2="50" stroke="rgba(255,255,255,0.05)" stroke-width="2" stroke-dasharray="4 2"/>
  
  <circle cx="90" cy="40" r="8" fill="rgba(59,130,246,0.2)" stroke="#3b82f6" stroke-width="1"/>
  <text x="90" y="44" font-family="sans-serif" font-size="14" fill="#3b82f6" text-anchor="middle">皖</text>
  
  <text x="90" y="170" font-family="sans-serif" font-size="12" fill="#94a3b8" text-anchor="middle">重点城市</text>
</svg>