<svg xmlns="http://www.w3.org/2000/svg" viewBox="0 0 180 180">
  <defs>
    <linearGradient id="a2Grad" x1="0%" y1="0%" x2="100%" y2="100%">
      <stop offset="0%" style="stop-color:#8b5cf6;stop-opacity:1" />
      <stop offset="100%" style="stop-color:#6d28d9;stop-opacity:1" />
    </linearGradient>
  </defs>
  <rect width="180" height="180" fill="#1e293b"/>
  
  <rect x="30" y="35" width="55" height="60" rx="8" fill="rgba(139,92,246,0.1)" stroke="#8b5cf6" stroke-width="2"/>
  <rect x="40" y="45" width="35" height="18" rx="4" fill="#334155"/>
  <text x="57" y="58" font-family="sans-serif" font-size="10" fill="#8b5cf6" text-anchor="middle">埃斯顿</text>
  <text x="57" y="72" font-family="sans-serif" font-size="8" fill="#94a3b8" text-anchor="middle">自动化</text>
  <rect x="42" y="80" width="30" height="10" rx="2" fill="rgba(139,92,246,0.2)"/>
  <text x="57" y="87" font-family="sans-serif" font-size="7" fill="#a78bfa" text-anchor="middle">焊接 / 搬运</text>
  <rect x="42" y="95" width="30" height="10" rx="2" fill="rgba(139,92,246,0.1)"/>
  <text x="57" y="102" font-family="sans-serif" font-size="7" fill="#a78bfa" text-anchor="middle">装配机器人</text>
  
  <rect x="95" y="35" width="55" height="60" rx="8" fill="rgba(59,130,246,0.1)" stroke="#3b82f6" stroke-width="2"/>
  <rect x="105" y="45" width="35" height="18" rx="4" fill="#334155"/>
  <text x="122" y="58" font-family="sans-serif" font-size="10" fill="#3b82f6" text-anchor="middle">配天</text>
  <text x="122" y="72" font-family="sans-serif" font-size="8" fill="#94a3b8" text-anchor="middle">机器人</text>
  <rect x="107" y="80" width="30" height="10" rx="2" fill="rgba(59,130,246,0.2)"/>
  <text x="122" y="87" font-family="sans-serif" font-size="7" fill="#60a5fa" text-anchor="middle">高端研发</text>
  <rect x="107" y="95" width="30" height="10" rx="2" fill="rgba(59,130,246,0.1)"/>
  <text x="122" y="102" font-family="sans-serif" font-size="7" fill="#60a5fa" text-anchor="middle">3C / 新能源</text>
  
  <rect x="50" y="110" width="80" height="45" rx="8" fill="rgba(34,197,94,0.1)" stroke="#22c55e" stroke-width="2"/>
  <rect x="60" y="120" width="60" height="12" rx="3" fill="#334155"/>
  <text x="90" y="129" font-family="sans-serif" font-size="9" fill="#22c55e" text-anchor="middle">巨一科技</text>
  <rect x="62" y="137" width="56" height="18" rx="3" fill="#1e293b" stroke="#475569" stroke-width="1"/>
  <text x="90" y="149" font-family="sans-serif" font-size="7" fill="#94a3b8" text-anchor="middle">智能装备 / 自动化产线</text>
  
  <circle cx="155" cy="160" r="10" fill="rgba(245,158,11,0.2)" stroke="#f59e0b" stroke-width="1"/>
  <text x="155" y="165" font-family="sans-serif" font-size="16" fill="#f59e0b" text-anchor="middle">+</text>
  
  <text x="90" y="170" font-family="sans-serif" font-size="12" fill="#94a3b8" text-anchor="middle">龙头企业</text>
</svg>