<svg xmlns="http://www.w3.org/2000/svg" viewBox="0 0 300 280">
  <rect width="300" height="280" fill="#1e293b"/>
  <rect x="90" y="20" width="120" height="40" rx="8" fill="rgba(59,130,246,0.1)" stroke="#3b82f6" stroke-width="2"/>
  <text x="150" y="42" font-family="sans-serif" font-size="16" fill="#3b82f6" text-anchor="middle" font-weight="bold">上游</text>
  <text x="150" y="58" font-family="sans-serif" font-size="11" fill="#94a3b8" text-anchor="middle">核心零部件</text>
  <line x1="120" y1="60" x2="120" y2="80" stroke="#3b82f6" stroke-width="2"/>
  <line x1="140" y1="60" x2="140" y2="80" stroke="#3b82f6" stroke-width="2"/>
  <line x1="160" y1="60" x2="160" y2="80" stroke="#3b82f6" stroke-width="2"/>
  <line x1="180" y1="60" x2="180" y2="80" stroke="#3b82f6" stroke-width="2"/>
  <rect x="40" y="90" width="60" height="40" rx="6" fill="rgba(139,92,246,0.1)" stroke="#8b5cf6" stroke-width="2"/>
  <text x="70" y="110" font-family="sans-serif" font-size="12" fill="#8b5cf6" text-anchor="middle">伺服电机</text>
  <text x="70" y="126" font-family="sans-serif" font-size="9" fill="#94a3b8" text-anchor="middle">驱动核心</text>
  <rect x="120" y="90" width="60" height="40" rx="6" fill="rgba(245,158,11,0.1)" stroke="#f59e0b" stroke-width="2"/>
  <text x="150" y="110" font-family="sans-serif" font-size="12" fill="#f59e0b" text-anchor="middle">减速器</text>
  <text x="150" y="126" font-family="sans-serif" font-size="9" fill="#94a3b8" text-anchor="middle">精密传动</text>
  <rect x="200" y="90" width="60" height="40" rx="6" fill="rgba(34,197,94,0.1)" stroke="#22c55e" stroke-width="2"/>
  <text x="230" y="110" font-family="sans-serif" font-size="12" fill="#22c55e" text-anchor="middle">控制器</text>
  <text x="230" y="126" font-family="sans-serif" font-size="9" fill="#94a3b8" text-anchor="middle">控制核心</text>
  <line x1="70" y1="130" x2="70" y2="150" stroke="#8b5cf6" stroke-width="2"/>
  <line x1="150" y1="130" x2="150" y2="150" stroke="#f59e0b" stroke-width="2"/>
  <line x1="230" y1="130" x2="230" y2="150" stroke="#22c55e" stroke-width="2"/>
  <rect x="90" y="160" width="120" height="40" rx="8" fill="rgba(220,38,38,0.1)" stroke="#dc2626" stroke-width="2"/>
  <text x="150" y="182" font-family="sans-serif" font-size="16" fill="#dc2626" text-anchor="middle" font-weight="bold">中游</text>
  <text x="150" y="198" font-family="sans-serif" font-size="11" fill="#94a3b8" text-anchor="middle">整机制造</text>
  <line x1="120" y1="200" x2="120" y2="220" stroke="#dc2626" stroke-width="2"/>
  <line x1="180" y1="200" x2="180" y2="220" stroke="#dc2626" stroke-width="2"/>
  <rect x="40" y="230" width="60" height="35" rx="6" fill="rgba(59,130,246,0.1)" stroke="#3b82f6" stroke-width="2"/>
  <text x="70" y="248" font-family="sans-serif" font-size="11" fill="#3b82f6" text-anchor="middle">工业机器人</text>
  <text x="70" y="262" font-family="sans-serif" font-size="9" fill="#94a3b8" text-anchor="middle">焊接/装配</text>
  <rect x="120" y="230" width="60" height="35" rx="6" fill="rgba(139,92,246,0.1)" stroke="#8b5cf6" stroke-width="2"/>
  <text x="150" y="248" font-family="sans-serif" font-size="11" fill="#8b5cf6" text-anchor="middle">服务机器人</text>
  <text x="150" y="262" font-family="sans-serif" font-size="9" fill="#94a3b8" text-anchor="middle">医疗/物流</text>
  <rect x="200" y="230" width="60" height="35" rx="6" fill="rgba(245,158,11,0.1)" stroke="#f59e0b" stroke-width="2"/>
  <text x="230" y="248" font-family="sans-serif" font-size="11" fill="#f59e0b" text-anchor="middle">特种机器人</text>
  <text x="230" y="262" font-family="sans-serif" font-size="9" fill="#94a3b8" text-anchor="middle">安防/巡检</text>
</svg>