<svg xmlns="http://www.w3.org/2000/svg" viewBox="0 0 400 300">
  <defs>
    <linearGradient id="grad4" x1="0%" y1="0%" x2="100%" y2="100%">
      <stop offset="0%" style="stop-color:#1e3a5f;stop-opacity:1" />
      <stop offset="100%" style="stop-color:#0f172a;stop-opacity:1" />
    </linearGradient>
    <filter id="glow4">
      <feGaussianBlur stdDeviation="2" result="coloredBlur"/>
      <feMerge>
        <feMergeNode in="coloredBlur"/>
        <feMergeNode in="SourceGraphic"/>
      </feMerge>
    </filter>
  </defs>
  <rect width="400" height="300" fill="url(#grad4)"/>
  <g transform="translate(50, 60)">
    <rect x="0" y="0" width="130" height="100" fill="#1e293b" stroke="#ef4444" stroke-width="2" rx="8"/>
    <text x="65" y="25" fill="#ef4444" font-size="14" font-weight="bold" text-anchor="middle">汽车制造</text>
    <text x="65" y="40" fill="#64748b" font-size="10" text-anchor="middle">占比 32%</text>
    <rect x="15" y="55" width="30" height="30" fill="#1e293b" stroke="#ef4444" stroke-width="1"/>
    <line x1="25" y1="65" x2="35" y2="75" stroke="#ef4444" stroke-width="2"/>
    <line x1="35" y1="65" x2="25" y2="75" stroke="#ef4444" stroke-width="2"/>
    <text x="30" y="95" fill="#94a3b8" font-size="8" text-anchor="middle">焊接</text>
    <rect x="50" y="55" width="30" height="30" fill="#1e293b" stroke="#f59e0b" stroke-width="1"/>
    <circle cx="65" cy="70" r="8" fill="#f59e0b" opacity="0.6"/>
    <text x="65" y="95" fill="#94a3b8" font-size="8" text-anchor="middle">涂装</text>
    <rect x="85" y="55" width="30" height="30" fill="#1e293b" stroke="#22d3ee" stroke-width="1"/>
    <rect x="95" y="65" width="10" height="10" fill="#22d3ee"/>
    <text x="100" y="95" fill="#94a3b8" font-size="8" text-anchor="middle">装配</text>
  </g>
  <g transform="translate(220, 60)">
    <rect x="0" y="0" width="130" height="100" fill="#1e293b" stroke="#22d3ee" stroke-width="2" rx="8"/>
    <text x="65" y="25" fill="#22d3ee" font-size="14" font-weight="bold" text-anchor="middle">3C电子</text>
    <text x="65" y="40" fill="#64748b" font-size="10" text-anchor="middle">占比 25%</text>
    <rect x="15" y="55" width="30" height="30" fill="#1e293b" stroke="#22d3ee" stroke-width="1"/>
    <rect x="20" y="60" width="20" height="20" fill="#22d3ee" opacity="0.3"/>
    <text x="30" y="95" fill="#94a3b8" font-size="8" text-anchor="middle">组装</text>
    <rect x="50" y="55" width="30" height="30" fill="#1e293b" stroke="#38bdf8" stroke-width="1"/>
    <circle cx="65" cy="70" r="5" fill="#38bdf8"/>
    <line x1="60" y1="70" x2="70" y2="70" stroke="#38bdf8" stroke-width="1"/>
    <text x="65" y="95" fill="#94a3b8" font-size="8" text-anchor="middle">检测</text>
    <rect x="85" y="55" width="30" height="30" fill="#1e293b" stroke="#60a5fa" stroke-width="1"/>
    <line x1="90" y1="70" x2="110" y2="70" stroke="#60a5fa" stroke-width="3"/>
    <text x="100" y="95" fill="#94a3b8" font-size="8" text-anchor="middle">点胶</text>
  </g>
  <g transform="translate(50, 180)">
    <rect x="0" y="0" width="130" height="80" fill="#1e293b" stroke="#a855f7" stroke-width="2" rx="8"/>
    <text x="65" y="25" fill="#a855f7" font-size="14" font-weight="bold" text-anchor="middle">医疗健康</text>
    <rect x="25" y="40" width="35" height="30" fill="#1e293b" stroke="#ef4444" stroke-width="1"/>
    <path d="M40 45 L55 55 L40 65 L25 55 Z" fill="#ef4444" opacity="0.6"/>
    <text x="42" y="78" fill="#94a3b8" font-size="8" text-anchor="middle">手术</text>
    <rect x="70" y="40" width="35" height="30" fill="#1e293b" stroke="#22c55e" stroke-width="1"/>
    <rect x="75" y="45" width="25" height="20" fill="#22c55e" opacity="0.3"/>
    <text x="87" y="78" fill="#94a3b8" font-size="8" text-anchor="middle">分拣</text>
  </g>
  <g transform="translate(220, 180)">
    <rect x="0" y="0" width="130" height="80" fill="#1e293b" stroke="#f59e0b" stroke-width="2" rx="8"/>
    <text x="65" y="25" fill="#f59e0b" font-size="14" font-weight="bold" text-anchor="middle">物流仓储</text>
    <rect x="25" y="40" width="35" height="30" fill="#1e293b" stroke="#f59e0b" stroke-width="1"/>
    <rect x="30" y="45" width="25" height="20" fill="#f59e0b" opacity="0.6"/>
    <text x="42" y="78" fill="#94a3b8" font-size="8" text-anchor="middle">码垛</text>
    <rect x="70" y="40" width="35" height="30" fill="#1e293b" stroke="#fbbf24" stroke-width="1"/>
    <circle cx="87" cy="55" r="10" fill="#fbbf24" opacity="0.6"/>
    <text x="87" y="78" fill="#94a3b8" font-size="8" text-anchor="middle">分拣</text>
  </g>
  <text x="200" y="290" text-anchor="middle" fill="#64748b" font-size="14">四大应用领域</text>
</svg>